<mxfile host="app.diagrams.net" agent="Mozilla/5.0 (Windows NT 10.0; Win64; x64) AppleWebKit/537.36 (KHTML, like Gecko) Chrome/130.0.0.0 Safari/537.36 Edg/130.0.0.0" version="27.1.3">
  <diagram name="第 1 页" id="oimVrD2Q5sI-OtpYlPWk">
    <mxGraphModel dx="823" dy="574" grid="1" gridSize="10" guides="1" tooltips="1" connect="1" arrows="1" fold="1" page="1" pageScale="1" pageWidth="827" pageHeight="1169" math="0" shadow="0">
      <root>
        <mxCell id="0" />
        <mxCell id="1" parent="0" />
        <mxCell id="yz8o8m8Co_Lcj7NCytDr-1" value="&lt;font face=&quot;宋体&quot;&gt;&amp;nbsp; &amp;nbsp;&lt;b&gt;&lt;font style=&quot;font-size: 23px;&quot;&gt;电源模块&lt;/font&gt;&lt;/b&gt;&lt;/font&gt;" style="rounded=1;whiteSpace=wrap;html=1;align=left;fillColor=#e1d5e7;strokeColor=#9673a6;" vertex="1" parent="1">
          <mxGeometry x="160" y="40" width="440" height="60" as="geometry" />
        </mxCell>
        <mxCell id="yz8o8m8Co_Lcj7NCytDr-2" value="" style="rounded=1;whiteSpace=wrap;html=1;" vertex="1" parent="1">
          <mxGeometry x="300" y="50" width="210" height="40" as="geometry" />
        </mxCell>
      </root>
    </mxGraphModel>
  </diagram>
</mxfile>
